# xmcd CD database file
#
# Track frame offsets:
#	182
#	35427
#	43027
#	59187
#	75267
#	85220
#	101215
#	117342
#	131240
#	145027
#	162825
#	184410
#	196965
#	220542
#	232647
#	239692
#
# Disc length: 3401 seconds
#
# Revision: 0
# Processed by: cddbd v1.5.1PL0 Copyright (c) Steve Scherf et al.
# Submitted via: CDex 1.51
#
DISCID=df0d4710
DTITLE=Willie Nelson - Always On My Mind And Other Big Hits Live
DYEAR=1989
DGENRE=Country
TTITLE0=Funny How Times Slips Away/Crazy/Night Life
TTITLE1=If You Got The Money Honey, I've Got The Time
TTITLE2=Georgia On My Mind
TTITLE3=Star Dust
TTITLE4=On The Road Again
TTITLE5=Always On My Mind
TTITLE6=Angel Flying Too Close To The Ground
TTITLE7=Good Hearted Woman
TTITLE8=Blue Eyes Crying In The Rain
TTITLE9=Red Headed Stranger
TTITLE10=City Of New Orleans
TTITLE11=To All The Girls I've Loved Before
TTITLE12='Till I Can Gain Control Again
TTITLE13=Seven Spanish Angels
TTITLE14=Luckenbach, Texas
TTITLE15=Whiskey River
EXTD=YEAR: 1989
EXTT0=
EXTT1=
EXTT2=
EXTT3=
EXTT4=
EXTT5=
EXTT6=
EXTT7=
EXTT8=
EXTT9=
EXTT10=
EXTT11=
EXTT12=
EXTT13=
EXTT14=
EXTT15=
PLAYORDER=
